Egyptienne 3.ufo
<glyph name="one" format="2">
  <advance width="324"/>
  <unicode hex="0031"/>
  <note>
one
</note>
  <outline>
    <contour>
      <point x="4" y="451" type="curve"/>
      <point x="4" y="346" type="line"/>
      <point x="27" y="354"/>
      <point x="33" y="362"/>
      <point x="71" y="406" type="curve" smooth="yes"/>
      <point x="98" y="437"/>
      <point x="96" y="438"/>
      <point x="108" y="451" type="curve"/>
      <point x="108" y="73" type="line"/>
      <point x="4" y="73" type="line"/>
      <point x="4" y="2" type="line"/>
      <point x="320" y="2" type="line"/>
      <point x="320" y="76" type="line"/>
      <point x="226" y="76" type="line"/>
      <point x="226" y="701" type="line"/>
      <point x="125" y="701" type="line"/>
      <point x="114" y="654"/>
      <point x="113" y="601"/>
      <point x="92" y="560" type="curve" smooth="yes"/>
      <point x="74" y="524"/>
      <point x="36" y="475"/>
    </contour>
  </outline>
</glyph>
<glyph name="two" format="2">
  <advance width="464"/>
  <unicode hex="0032"/>
  <note>
two</note>
  <outline>
    <contour>
      <point x="111" y="413" type="curve"/>
      <point x="7" y="413" type="line"/>
      <point x="4" y="451"/>
      <point x="-14" y="547"/>
      <point x="42" y="618" type="curve" smooth="yes"/>
      <point x="106" y="700"/>
      <point x="192" y="700"/>
      <point x="222" y="700" type="curve" smooth="yes"/>
      <point x="266" y="700"/>
      <point x="365" y="682"/>
      <point x="415" y="602" type="curve" smooth="yes"/>
      <point x="453" y="542"/>
      <point x="469" y="476"/>
      <point x="437" y="393" type="curve"/>
      <point x="391" y="307"/>
      <point x="346" y="283"/>
      <point x="291" y="229" type="curve" smooth="yes"/>
      <point x="236" y="175"/>
      <point x="195" y="139"/>
      <point x="151" y="103" type="curve"/>
      <point x="383" y="103" type="line"/>
      <point x="383" y="229" type="line"/>
      <point x="466" y="229" type="line"/>
      <point x="466" y="4" type="line"/>
      <point x="9" y="4" type="line"/>
      <point x="9" y="73" type="line"/>
      <point x="224" y="287" type="line"/>
      <point x="243" y="319"/>
      <point x="317" y="381"/>
      <point x="328" y="489" type="curve" smooth="yes"/>
      <point x="340" y="596"/>
      <point x="261" y="621"/>
      <point x="211" y="621" type="curve" smooth="yes"/>
      <point x="161" y="621"/>
      <point x="100" y="594"/>
      <point x="100" y="489" type="curve" smooth="yes"/>
      <point x="100" y="457"/>
      <point x="104" y="435"/>
    </contour>
  </outline>
</glyph>
<glyph name="three" format="2">
  <advance width="495"/>
  <unicode hex="0033"/>
  <note>
three</note>
  <outline>
    <contour>
      <point x="113" y="480" type="curve"/>
      <point x="1" y="480" type="line"/>
      <point x="1" y="520"/>
      <point x="-9" y="573"/>
      <point x="52" y="644" type="curve" smooth="yes"/>
      <point x="111" y="713"/>
      <point x="196" y="711"/>
      <point x="259" y="711" type="curve" smooth="yes"/>
      <point x="367" y="711"/>
      <point x="491" y="660"/>
      <point x="491" y="528" type="curve" smooth="yes"/>
      <point x="491" y="395"/>
      <point x="434" y="378"/>
      <point x="367" y="355" type="curve"/>
      <point x="389" y="346"/>
      <point x="407" y="349"/>
      <point x="443" y="312" type="curve" smooth="yes"/>
      <point x="499" y="255"/>
      <point x="487" y="193"/>
      <point x="487" y="168" type="curve" smooth="yes"/>
      <point x="487" y="105"/>
      <point x="434" y="0"/>
      <point x="257" y="0" type="curve" smooth="yes"/>
      <point x="78" y="0"/>
      <point x="40" y="83"/>
      <point x="29" y="96" type="curve" smooth="yes"/>
      <point x="2" y="128"/>
      <point x="-3" y="191"/>
      <point x="-3" y="230" type="curve" smooth="yes"/>
      <point x="-3" y="232"/>
      <point x="103" y="238"/>
      <point x="103" y="230" type="curve"/>
      <point x="114" y="193"/>
      <point x="111" y="143"/>
      <point x="137" y="118" type="curve" smooth="yes"/>
      <point x="160" y="96"/>
      <point x="185" y="68"/>
      <point x="258" y="73" type="curve" smooth="yes"/>
      <point x="331" y="78"/>
      <point x="377" y="137"/>
      <point x="371" y="205" type="curve" smooth="yes"/>
      <point x="368" y="245"/>
      <point x="340" y="310"/>
      <point x="293" y="310" type="curve" smooth="yes"/>
      <point x="155" y="310" type="line"/>
      <point x="155" y="397" type="line"/>
      <point x="293" y="397" type="line"/>
      <point x="318" y="405"/>
      <point x="372" y="425"/>
      <point x="370" y="525" type="curve" smooth="yes"/>
      <point x="368" y="612"/>
      <point x="304" y="635"/>
      <point x="245" y="636" type="curve" smooth="yes"/>
      <point x="165" y="638"/>
      <point x="92" y="567"/>
    </contour>
  </outline>
</glyph>
<glyph name="five" format="2">
  <advance width="458"/>
  <unicode hex="0035"/>
  <note>
five</note>
  <outline>
    <contour>
      <point x="442" y="699" type="curve"/>
      <point x="321" y="699" type="line"/>
      <point x="310" y="691"/>
      <point x="305" y="659"/>
      <point x="240" y="659" type="curve" smooth="yes"/>
      <point x="193" y="659"/>
      <point x="175" y="679"/>
      <point x="140" y="700" type="curve"/>
      <point x="24" y="700" type="line"/>
      <point x="24" y="328" type="line"/>
      <point x="114" y="328" type="line"/>
      <point x="124" y="333"/>
      <point x="141" y="395"/>
      <point x="230" y="395" type="curve" smooth="yes"/>
      <point x="298" y="395"/>
      <point x="347" y="328"/>
      <point x="347" y="237" type="curve" smooth="yes"/>
      <point x="347" y="158"/>
      <point x="315" y="82"/>
      <point x="222" y="82" type="curve" smooth="yes"/>
      <point x="129" y="82"/>
      <point x="94" y="170"/>
      <point x="110" y="249" type="curve" smooth="yes"/>
      <point x="111" y="255"/>
      <point x="2" y="254"/>
      <point x="2" y="249" type="curve" smooth="yes"/>
      <point x="2" y="184"/>
      <point x="-7" y="3"/>
      <point x="229" y="3" type="curve" smooth="yes"/>
      <point x="463" y="3"/>
      <point x="456" y="217"/>
      <point x="456" y="266" type="curve" smooth="yes"/>
      <point x="456" y="344"/>
      <point x="386" y="471"/>
      <point x="251" y="471" type="curve" smooth="yes"/>
      <point x="162" y="471"/>
      <point x="144" y="449"/>
      <point x="107" y="416" type="curve"/>
      <point x="107" y="650" type="line"/>
      <point x="129" y="635"/>
      <point x="174" y="571"/>
      <point x="257" y="571" type="curve" smooth="yes"/>
      <point x="347" y="571"/>
      <point x="421" y="625"/>
    </contour>
  </outline>
</glyph>
<glyph name="seven" format="2">
  <advance width="572"/>
  <unicode hex="0037"/>
  <note>
seven</note>
  <outline>
    <contour>
      <point x="337" y="0" type="curve"/>
      <point x="221" y="0" type="line"/>
      <point x="235" y="94"/>
      <point x="261" y="192"/>
      <point x="297" y="304" type="curve" smooth="yes"/>
      <point x="333" y="416"/>
      <point x="391" y="529"/>
      <point x="421" y="574" type="curve"/>
      <point x="397" y="569"/>
      <point x="350" y="561"/>
      <point x="288" y="561" type="curve" smooth="yes"/>
      <point x="226" y="561"/>
      <point x="191" y="570"/>
      <point x="151" y="583" type="curve"/>
      <point x="151" y="430" type="line"/>
      <point x="81" y="430" type="line"/>
      <point x="81" y="679" type="line"/>
      <point x="149" y="674"/>
      <point x="210" y="664"/>
      <point x="287" y="664" type="curve" smooth="yes"/>
      <point x="364" y="664"/>
      <point x="428" y="669"/>
      <point x="488" y="677" type="curve"/>
      <point x="488" y="583" type="line"/>
      <point x="440" y="467"/>
      <point x="397" y="339"/>
      <point x="374" y="243" type="curve" smooth="yes"/>
      <point x="355" y="165"/>
      <point x="341" y="72"/>
    </contour>
  </outline>
</glyph>
<glyph name="nine" format="2">
  <advance width="572"/>
  <unicode hex="0039"/>
  <note>
nine</note>
  <outline>
    <contour>
      <point x="179" y="203" type="curve"/>
      <point x="54" y="203" type="line"/>
      <point x="68" y="137"/>
      <point x="102" y="-5"/>
      <point x="257" y="-5" type="curve" smooth="yes"/>
      <point x="395" y="-5"/>
      <point x="515" y="70"/>
      <point x="515" y="367" type="curve" smooth="yes"/>
      <point x="515" y="549"/>
      <point x="409" y="681"/>
      <point x="253" y="681" type="curve" smooth="yes"/>
      <point x="208" y="681"/>
      <point x="40" y="642"/>
      <point x="40" y="453" type="curve" smooth="yes"/>
      <point x="40" y="264"/>
      <point x="203" y="226"/>
      <point x="247" y="226" type="curve" smooth="yes"/>
      <point x="309" y="226"/>
      <point x="366" y="247"/>
      <point x="400" y="290" type="curve"/>
      <point x="407" y="233"/>
      <point x="403" y="101"/>
      <point x="328" y="72" type="curve" smooth="yes"/>
      <point x="243" y="39"/>
      <point x="176" y="106"/>
    </contour>
    <contour>
      <point x="273" y="608" type="curve" smooth="yes"/>
      <point x="331" y="608"/>
      <point x="395" y="541"/>
      <point x="395" y="459" type="curve" smooth="yes"/>
      <point x="395" y="377"/>
      <point x="360" y="307"/>
      <point x="273" y="307" type="curve" smooth="yes"/>
      <point x="186" y="307"/>
      <point x="153" y="397"/>
      <point x="153" y="459" type="curve" smooth="yes"/>
      <point x="153" y="521"/>
      <point x="189" y="608"/>
    </contour>
  </outline>
</glyph>
<glyph name="A" format="2">
  <advance width="670"/>
  <unicode hex="0041"/>
  <note>
A
</note>
  <guideline x="325"/>
  <outline>
    <contour>
      <point x="0" y="70" type="line"/>
      <point x="0" y="0" type="line"/>
      <point x="270" y="0" type="line"/>
      <point x="270" y="70" type="line"/>
      <point x="186" y="70" type="line"/>
      <point x="235" y="238" type="line"/>
      <point x="409" y="238" type="line"/>
      <point x="455" y="70" type="line"/>
      <point x="380" y="70" type="line"/>
      <point x="380" y="0" type="line"/>
      <point x="640" y="0" type="line"/>
      <point x="640" y="70" type="line"/>
      <point x="554" y="70" type="line"/>
      <point x="380" y="700" type="line"/>
      <point x="270" y="700" type="line"/>
      <point x="86" y="70" type="line"/>
    </contour>
    <contour>
      <point x="389" y="314" type="line"/>
      <point x="257" y="314" type="line"/>
      <point x="325" y="550" type="line"/>
    </contour>
  </outline>
</glyph>
<glyph name="C" format="2">
  <advance width="545"/>
  <unicode hex="0043"/>
  <note>
C</note>
  <outline>
    <contour>
      <point x="210" y="0" type="curve" smooth="yes"/>
      <point x="295" y="0" type="line" smooth="yes"/>
      <point x="346" y="0"/>
      <point x="415" y="88"/>
      <point x="420" y="99" type="curve"/>
      <point x="420" y="0" type="line"/>
      <point x="495" y="0" type="line"/>
      <point x="495" y="280" type="line"/>
      <point x="420" y="280" type="line"/>
      <point x="420" y="250"/>
      <point x="375" y="70"/>
      <point x="250" y="70" type="curve" smooth="yes"/>
      <point x="110" y="70"/>
      <point x="121" y="275"/>
      <point x="121" y="375" type="curve" smooth="yes"/>
      <point x="121" y="453"/>
      <point x="110" y="630"/>
      <point x="250" y="630" type="curve" smooth="yes"/>
      <point x="375" y="630"/>
      <point x="395" y="515"/>
      <point x="395" y="450" type="curve"/>
      <point x="470" y="450" type="line"/>
      <point x="470" y="700" type="line"/>
      <point x="395" y="700" type="line"/>
      <point x="395" y="635" type="line"/>
      <point x="390" y="635"/>
      <point x="335" y="700"/>
      <point x="250" y="700" type="curve" smooth="yes"/>
      <point x="165" y="700"/>
      <point x="0" y="643"/>
      <point x="0" y="375" type="curve" smooth="yes"/>
      <point x="0" y="107"/>
      <point x="155" y="0"/>
    </contour>
  </outline>
</glyph>
<glyph name="D" format="2">
  <advance width="662"/>
  <unicode hex="0044"/>
  <note>
D</note>
  <outline>
    <contour>
      <point x="356" y="700" type="curve" smooth="yes"/>
      <point x="41" y="700" type="line"/>
      <point x="41" y="630" type="line"/>
      <point x="141" y="630" type="line"/>
      <point x="141" y="70" type="line"/>
      <point x="41" y="70" type="line"/>
      <point x="41" y="0" type="line"/>
      <point x="358" y="0" type="line" smooth="yes"/>
      <point x="521" y="0"/>
      <point x="596" y="180"/>
      <point x="596" y="370" type="curve" smooth="yes"/>
      <point x="596" y="530"/>
      <point x="521" y="700"/>
    </contour>
    <contour>
      <point x="256" y="70" type="line"/>
      <point x="256" y="630" type="line"/>
      <point x="361" y="630" type="line" smooth="yes"/>
      <point x="486" y="630"/>
      <point x="486" y="455"/>
      <point x="486" y="370" type="curve" smooth="yes"/>
      <point x="486" y="255"/>
      <point x="486" y="70"/>
      <point x="361" y="70" type="curve" smooth="yes"/>
    </contour>
  </outline>
</glyph>
<glyph name="E" format="2">
  <advance width="640"/>
  <unicode hex="0045"/>
  <note>
E</note>
  <outline>
    <contour>
      <point x="515" y="630" type="line"/>
      <point x="515" y="475" type="line"/>
      <point x="585" y="475" type="line"/>
      <point x="585" y="700" type="line"/>
      <point x="0" y="700" type="line"/>
      <point x="0" y="630" type="line"/>
      <point x="90" y="630" type="line"/>
      <point x="90" y="70" type="line"/>
      <point x="0" y="70" type="line"/>
      <point x="0" y="0" type="line"/>
      <point x="620" y="0" type="line"/>
      <point x="620" y="265" type="line"/>
      <point x="545" y="265" type="line"/>
      <point x="545" y="70" type="line"/>
      <point x="190" y="70" type="line"/>
      <point x="190" y="335" type="line"/>
      <point x="470" y="335" type="line"/>
      <point x="470" y="405" type="line"/>
      <point x="190" y="405" type="line"/>
      <point x="190" y="630" type="line"/>
    </contour>
  </outline>
</glyph>
<glyph name="G" format="2">
  <advance width="639"/>
  <unicode hex="0047"/>
  <note>
G
</note>
  <outline>
    <contour>
      <point x="411" y="625" type="curve"/>
      <point x="410" y="700" type="line"/>
      <point x="480" y="700" type="line"/>
      <point x="480" y="457" type="line"/>
      <point x="411" y="457" type="line"/>
      <point x="411" y="502"/>
      <point x="380" y="635"/>
      <point x="276" y="635" type="curve" smooth="yes"/>
      <point x="216" y="635"/>
      <point x="160" y="575"/>
      <point x="160" y="500" type="curve" smooth="yes"/>
      <point x="160" y="201" type="line" smooth="yes"/>
      <point x="160" y="175"/>
      <point x="164" y="80"/>
      <point x="276" y="80" type="curve" smooth="yes"/>
      <point x="380" y="80"/>
      <point x="411" y="155"/>
      <point x="411" y="200" type="curve" smooth="yes"/>
      <point x="411" y="290" type="line"/>
      <point x="311" y="290" type="line"/>
      <point x="311" y="360" type="line"/>
      <point x="626" y="361" type="line"/>
      <point x="626" y="290" type="line"/>
      <point x="525" y="290" type="line"/>
      <point x="525" y="0" type="line"/>
      <point x="460" y="0" type="line"/>
      <point x="435" y="80" type="line"/>
      <point x="412" y="46"/>
      <point x="380" y="0"/>
      <point x="276" y="0" type="curve" smooth="yes"/>
      <point x="80" y="0"/>
      <point x="40" y="225"/>
      <point x="40" y="375" type="curve" smooth="yes"/>
      <point x="40" y="510"/>
      <point x="110" y="700"/>
      <point x="276" y="700" type="curve" smooth="yes"/>
      <point x="340" y="700"/>
      <point x="379" y="670"/>
    </contour>
  </outline>
</glyph>
<glyph name="I" format="2">
  <advance width="370"/>
  <unicode hex="0049"/>
  <note>
I</note>
  <outline>
    <contour>
      <point x="320" y="630" type="line"/>
      <point x="320" y="700" type="line"/>
      <point x="0" y="700" type="line"/>
      <point x="0" y="630" type="line"/>
      <point x="100" y="630" type="line"/>
      <point x="100" y="70" type="line"/>
      <point x="0" y="70" type="line"/>
      <point x="0" y="0" type="line"/>
      <point x="320" y="0" type="line"/>
      <point x="320" y="70" type="line"/>
      <point x="220" y="70" type="line"/>
      <point x="220" y="630" type="line"/>
    </contour>
  </outline>
</glyph>
<glyph name="J" format="2">
  <advance width="428"/>
  <unicode hex="004A"/>
  <note>
J</note>
  <outline>
    <contour>
      <point x="378" y="631" type="line"/>
      <point x="378" y="700" type="line"/>
      <point x="98" y="700" type="line"/>
      <point x="98" y="631" type="line"/>
      <point x="198" y="631" type="line"/>
      <point x="198" y="136" type="line" smooth="yes"/>
      <point x="198" y="103"/>
      <point x="193" y="82"/>
      <point x="153" y="82" type="curve" smooth="yes"/>
      <point x="113" y="82"/>
      <point x="108" y="103"/>
      <point x="108" y="136" type="curve" smooth="yes"/>
      <point x="108" y="227" type="line"/>
      <point x="18" y="227" type="line"/>
      <point x="18" y="100" type="line"/>
      <point x="18" y="100"/>
      <point x="4" y="0"/>
      <point x="165" y="0" type="curve" smooth="yes"/>
      <point x="278" y="0"/>
      <point x="288" y="80"/>
      <point x="288" y="103" type="curve" smooth="yes"/>
      <point x="288" y="631" type="line"/>
    </contour>
  </outline>
</glyph>
<glyph name="M" format="2">
  <advance width="840"/>
  <unicode hex="004D"/>
  <note>
M</note>
  <outline>
    <contour>
      <point x="50" y="630" type="line"/>
      <point x="130" y="630" type="line"/>
      <point x="130" y="75" type="line"/>
      <point x="50" y="75" type="line"/>
      <point x="50" y="0" type="line"/>
      <point x="320" y="0" type="line"/>
      <point x="320" y="75" type="line"/>
      <point x="235" y="75" type="line"/>
      <point x="235" y="590" type="line"/>
      <point x="373" y="0" type="line"/>
      <point x="444" y="0" type="line"/>
      <point x="575" y="590" type="line"/>
      <point x="574" y="75" type="line"/>
      <point x="500" y="75" type="line"/>
      <point x="500" y="0" type="line"/>
      <point x="790" y="0" type="line"/>
      <point x="790" y="75" type="line"/>
      <point x="695" y="75" type="line"/>
      <point x="695" y="630" type="line"/>
      <point x="790" y="630" type="line"/>
      <point x="790" y="700" type="line"/>
      <point x="515" y="700" type="line"/>
      <point x="415" y="270" type="line"/>
      <point x="320" y="700" type="line"/>
      <point x="50" y="700" type="line"/>
    </contour>
  </outline>
</glyph>
<glyph name="O" format="2">
  <advance width="556"/>
  <unicode hex="004F"/>
  <note>
O
</note>
  <outline>
    <contour>
      <point x="265" y="700" type="curve" smooth="yes"/>
      <point x="420" y="700"/>
      <point x="525" y="560"/>
      <point x="525" y="372" type="curve" smooth="yes"/>
      <point x="525" y="148"/>
      <point x="420" y="0"/>
      <point x="265" y="0" type="curve" smooth="yes"/>
      <point x="100" y="0"/>
      <point x="4" y="176"/>
      <point x="2" y="375" type="curve" smooth="yes"/>
      <point x="0" y="560"/>
      <point x="100" y="700"/>
    </contour>
    <contour>
      <point x="265" y="75" type="curve" smooth="yes"/>
      <point x="360" y="75"/>
      <point x="415" y="165"/>
      <point x="415" y="375" type="curve" smooth="yes"/>
      <point x="415" y="585"/>
      <point x="360" y="635"/>
      <point x="265" y="635" type="curve" smooth="yes"/>
      <point x="165" y="635"/>
      <point x="115" y="585"/>
      <point x="115" y="375" type="curve" smooth="yes"/>
      <point x="115" y="165"/>
      <point x="165" y="75"/>
    </contour>
  </outline>
</glyph>
<glyph name="S" format="2">
  <advance width="572"/>
  <unicode hex="0053"/>
  <note>
S</note>
  <outline>
    <contour>
      <point x="393" y="645" type="curve"/>
      <point x="393" y="700" type="line"/>
      <point x="471" y="700" type="line"/>
      <point x="471" y="450" type="line"/>
      <point x="393" y="450" type="line"/>
      <point x="395" y="494"/>
      <point x="369" y="629"/>
      <point x="246" y="629" type="curve" smooth="yes"/>
      <point x="158" y="629"/>
      <point x="130" y="555"/>
      <point x="134" y="509" type="curve" smooth="yes"/>
      <point x="142" y="398"/>
      <point x="381" y="398"/>
      <point x="450" y="344" type="curve" smooth="yes"/>
      <point x="514" y="294"/>
      <point x="531" y="221"/>
      <point x="517" y="147" type="curve" smooth="yes"/>
      <point x="503" y="75"/>
      <point x="449" y="-10"/>
      <point x="318" y="-10" type="curve" smooth="yes"/>
      <point x="220" y="-10"/>
      <point x="168" y="30"/>
      <point x="141" y="60" type="curve"/>
      <point x="141" y="4" type="line"/>
      <point x="65" y="4" type="line"/>
      <point x="65" y="255" type="line"/>
      <point x="141" y="255" type="line"/>
      <point x="141" y="170"/>
      <point x="209" y="86"/>
      <point x="319" y="86" type="curve" smooth="yes"/>
      <point x="413" y="86"/>
      <point x="439" y="170"/>
      <point x="422" y="232" type="curve" smooth="yes"/>
      <point x="395" y="334"/>
      <point x="148" y="292"/>
      <point x="74" y="415" type="curve" smooth="yes"/>
      <point x="13" y="516"/>
      <point x="69" y="716"/>
      <point x="243" y="714" type="curve" smooth="yes"/>
      <point x="344" y="713"/>
      <point x="381" y="657"/>
    </contour>
  </outline>
</glyph>
<glyph name="W" format="2">
  <advance width="1048"/>
  <unicode hex="0057"/>
  <note>
W</note>
  <outline>
    <contour>
      <point x="337" y="622" type="line"/>
      <point x="337" y="700" type="line"/>
      <point x="30" y="700" type="line"/>
      <point x="30" y="622" type="line"/>
      <point x="121" y="622" type="line"/>
      <point x="293" y="0" type="line"/>
      <point x="408" y="0" type="line"/>
      <point x="605" y="622" type="line"/>
      <point x="696" y="622" type="line"/>
      <point x="696" y="700" type="line"/>
      <point x="409" y="700" type="line"/>
      <point x="408" y="622" type="line"/>
      <point x="517" y="622" type="line"/>
      <point x="363" y="154" type="line"/>
      <point x="246" y="622" type="line"/>
    </contour>
    <contour>
      <point x="696" y="622" type="line"/>
      <point x="696" y="700" type="line"/>
      <point x="390" y="700" type="line"/>
      <point x="390" y="622" type="line"/>
      <point x="481" y="622" type="line"/>
      <point x="653" y="0" type="line"/>
      <point x="761" y="0" type="line"/>
      <point x="927" y="622" type="line"/>
      <point x="1018" y="622" type="line"/>
      <point x="1018" y="700" type="line"/>
      <point x="750" y="700" type="line"/>
      <point x="750" y="622" type="line"/>
      <point x="839" y="622" type="line"/>
      <point x="723" y="154" type="line"/>
      <point x="605" y="622" type="line"/>
    </contour>
  </outline>
</glyph>
<glyph name="X" format="2">
  <advance width="694"/>
  <unicode hex="0058"/>
  <note>
X
</note>
  <outline>
    <contour>
      <point x="337" y="622" type="line"/>
      <point x="337" y="700" type="line"/>
      <point x="30" y="700" type="line"/>
      <point x="30" y="622" type="line"/>
      <point x="121" y="622" type="line"/>
      <point x="292" y="349" type="line"/>
      <point x="402" y="349" type="line"/>
      <point x="568" y="622" type="line"/>
      <point x="658" y="622" type="line"/>
      <point x="658" y="700" type="line"/>
      <point x="391" y="700" type="line"/>
      <point x="391" y="622" type="line"/>
      <point x="480" y="622" type="line"/>
      <point x="356" y="423" type="line"/>
      <point x="245" y="622" type="line"/>
    </contour>
    <contour>
      <point x="358" y="78" type="line"/>
      <point x="358" y="0" type="line"/>
      <point x="664" y="0" type="line"/>
      <point x="664" y="78" type="line"/>
      <point x="573" y="78" type="line"/>
      <point x="402" y="349" type="line"/>
      <point x="292" y="349" type="line"/>
      <point x="126" y="78" type="line"/>
      <point x="36" y="78" type="line"/>
      <point x="36" y="0" type="line"/>
      <point x="305" y="0" type="line"/>
      <point x="305" y="78" type="line"/>
      <point x="214" y="78" type="line"/>
      <point x="339" y="276" type="line"/>
      <point x="449" y="78" type="line"/>
    </contour>
  </outline>
</glyph>
<glyph name="Y" format="2">
  <advance width="690"/>
  <unicode hex="0059"/>
  <note>
Y
</note>
  <outline>
    <contour>
      <point x="246" y="622" type="line"/>
      <point x="337" y="622" type="line"/>
      <point x="337" y="700" type="line"/>
      <point x="30" y="700" type="line"/>
      <point x="30" y="622" type="line"/>
      <point x="121" y="622" type="line"/>
      <point x="292" y="295" type="line"/>
      <point x="292" y="70" type="line"/>
      <point x="201" y="70" type="line"/>
      <point x="201" y="0" type="line"/>
      <point x="508" y="0" type="line"/>
      <point x="508" y="70" type="line"/>
      <point x="417" y="70" type="line"/>
      <point x="417" y="295" type="line"/>
      <point x="569" y="622" type="line"/>
      <point x="660" y="622" type="line"/>
      <point x="660" y="700" type="line"/>
      <point x="390" y="700" type="line"/>
      <point x="390" y="622" type="line"/>
      <point x="481" y="622" type="line"/>
      <point x="367" y="388" type="line"/>
    </contour>
  </outline>
</glyph>
<glyph name="Z" format="2">
  <advance width="492"/>
  <unicode hex="005A"/>
  <note>
Z</note>
  <outline>
    <contour>
      <point x="337" y="612" type="line"/>
      <point x="118" y="612" type="line"/>
      <point x="118" y="422" type="line"/>
      <point x="30" y="422" type="line"/>
      <point x="30" y="700" type="line"/>
      <point x="462" y="700" type="line"/>
      <point x="462" y="612" type="line"/>
      <point x="155" y="94" type="line"/>
      <point x="374" y="94" type="line"/>
      <point x="374" y="258" type="line"/>
      <point x="462" y="258" type="line"/>
      <point x="462" y="0" type="line"/>
      <point x="30" y="0" type="line"/>
      <point x="30" y="88" type="line"/>
    </contour>
  </outline>
</glyph>
<glyph name="a" format="2">
  <advance width="421"/>
  <unicode hex="0061"/>
  <note>
a</note>
  <outline>
    <contour>
      <point x="102" y="332" type="curve"/>
      <point x="16" y="332" type="line"/>
      <point x="16" y="367"/>
      <point x="15" y="510"/>
      <point x="172" y="510" type="curve" smooth="yes"/>
      <point x="329" y="510"/>
      <point x="338" y="404"/>
      <point x="336" y="332" type="curve"/>
      <point x="336" y="124" type="line" smooth="yes"/>
      <point x="336" y="103"/>
      <point x="343" y="52"/>
      <point x="365" y="46" type="curve" smooth="yes"/>
      <point x="376" y="43"/>
      <point x="391" y="46"/>
      <point x="406" y="49" type="curve"/>
      <point x="406" y="0" type="line"/>
      <point x="381" y="-8"/>
      <point x="356" y="-11"/>
      <point x="337" y="-10" type="curve" smooth="yes"/>
      <point x="310" y="-9"/>
      <point x="280" y="13"/>
      <point x="271" y="39" type="curve"/>
      <point x="252" y="22"/>
      <point x="225" y="-10"/>
      <point x="166" y="-10" type="curve" smooth="yes"/>
      <point x="47" y="-10"/>
      <point x="16" y="87"/>
      <point x="16" y="169" type="curve" smooth="yes"/>
      <point x="16" y="270"/>
      <point x="81" y="303"/>
      <point x="143" y="303" type="curve" smooth="yes"/>
      <point x="259" y="303" type="line"/>
      <point x="259" y="327"/>
      <point x="260" y="351"/>
      <point x="259" y="377" type="curve" smooth="yes"/>
      <point x="257" y="412"/>
      <point x="234" y="456"/>
      <point x="180" y="456" type="curve" smooth="yes"/>
      <point x="104" y="456"/>
      <point x="98" y="381"/>
    </contour>
    <contour>
      <point x="259" y="171" type="curve" smooth="yes"/>
      <point x="259" y="242" type="line"/>
      <point x="164" y="242"/>
      <point x="102" y="241"/>
      <point x="102" y="162" type="curve" smooth="yes"/>
      <point x="102" y="131"/>
      <point x="106" y="53"/>
      <point x="180" y="53" type="curve" smooth="yes"/>
      <point x="235" y="53"/>
      <point x="259" y="117"/>
    </contour>
  </outline>
</glyph>
<glyph name="b" format="2">
  <advance width="436"/>
  <unicode hex="0062"/>
  <note>
b</note>
  <outline>
    <contour>
      <point x="165" y="59" type="line" smooth="yes"/>
      <point x="165" y="624"/>
      <point x="165" y="-4"/>
      <point x="165" y="477" type="curve" smooth="yes"/>
      <point x="165" y="644" type="line"/>
      <point x="230" y="644" type="line"/>
      <point x="230" y="700" type="line"/>
      <point x="20" y="700" type="line"/>
      <point x="20" y="644" type="line"/>
      <point x="85" y="644" type="line"/>
      <point x="85" y="60" type="line"/>
      <point x="26" y="60" type="line"/>
      <point x="26" y="0" type="line"/>
      <point x="165" y="0" type="line"/>
      <point x="165" y="40" type="line"/>
    </contour>
    <contour>
      <point x="165" y="362" type="line" smooth="yes"/>
      <point x="165" y="739"/>
      <point x="165" y="-302"/>
      <point x="165" y="163" type="curve" smooth="yes"/>
    </contour>
    <contour>
      <point x="264" y="-10" type="curve" smooth="yes"/>
      <point x="355" y="-10"/>
      <point x="425" y="94"/>
      <point x="425" y="244" type="curve" smooth="yes"/>
      <point x="425" y="394"/>
      <point x="370" y="510"/>
      <point x="255" y="510" type="curve" smooth="yes"/>
      <point x="152" y="510"/>
      <point x="90" y="394"/>
      <point x="90" y="244" type="curve"/>
      <point x="90" y="94"/>
      <point x="175" y="-10"/>
    </contour>
    <contour>
      <point x="256" y="48" type="curve" smooth="yes"/>
      <point x="189" y="48"/>
      <point x="164" y="126"/>
      <point x="164" y="236" type="curve" smooth="yes"/>
      <point x="164" y="346"/>
      <point x="172" y="454"/>
      <point x="252" y="454" type="curve" smooth="yes"/>
      <point x="335" y="454"/>
      <point x="345" y="357"/>
      <point x="345" y="247" type="curve" smooth="yes"/>
      <point x="345" y="137"/>
      <point x="329" y="48"/>
    </contour>
  </outline>
</glyph>
<glyph name="c" format="2">
  <advance width="396"/>
  <unicode hex="0063"/>
  <note>
c
</note>
  <outline>
    <contour>
      <point x="359" y="328" type="curve"/>
      <point x="278" y="328" type="line"/>
      <point x="278" y="365"/>
      <point x="255" y="440"/>
      <point x="195" y="440" type="curve" smooth="yes"/>
      <point x="116" y="440"/>
      <point x="111" y="349"/>
      <point x="111" y="229" type="curve" smooth="yes"/>
      <point x="111" y="111"/>
      <point x="154" y="60"/>
      <point x="213" y="60" type="curve" smooth="yes"/>
      <point x="288" y="60"/>
      <point x="311" y="130"/>
      <point x="311" y="203" type="curve"/>
      <point x="381" y="203" type="line"/>
      <point x="381" y="90"/>
      <point x="336" y="-10"/>
      <point x="210" y="-10" type="curve" smooth="yes"/>
      <point x="86" y="-10"/>
      <point x="15" y="114"/>
      <point x="15" y="253" type="curve" smooth="yes"/>
      <point x="15" y="386"/>
      <point x="70" y="510"/>
      <point x="191" y="510" type="curve" smooth="yes"/>
      <point x="294" y="510"/>
      <point x="359" y="440"/>
    </contour>
  </outline>
</glyph>
<glyph name="d" format="2">
  <advance width="430"/>
  <unicode hex="0064"/>
  <note>
d</note>
  <outline>
    <contour>
      <point x="280" y="59" type="curve" smooth="yes"/>
      <point x="280" y="40" type="line"/>
      <point x="280" y="0" type="line"/>
      <point x="419" y="0" type="line"/>
      <point x="419" y="60" type="line"/>
      <point x="360" y="60" type="line"/>
      <point x="360" y="644" type="line"/>
      <point x="425" y="644" type="line"/>
      <point x="425" y="700" type="line"/>
      <point x="215" y="700" type="line"/>
      <point x="215" y="644" type="line"/>
      <point x="280" y="644" type="line"/>
      <point x="280" y="477" type="line" smooth="yes"/>
      <point x="280" y="-4"/>
      <point x="280" y="624"/>
    </contour>
    <contour>
      <point x="280" y="362" type="curve" smooth="yes"/>
      <point x="280" y="163" type="line" smooth="yes"/>
      <point x="280" y="-302"/>
      <point x="280" y="739"/>
    </contour>
    <contour>
      <point x="181" y="-10" type="curve" smooth="yes"/>
      <point x="270" y="-10"/>
      <point x="355" y="94"/>
      <point x="355" y="244" type="curve"/>
      <point x="355" y="394"/>
      <point x="293" y="510"/>
      <point x="190" y="510" type="curve" smooth="yes"/>
      <point x="75" y="510"/>
      <point x="20" y="394"/>
      <point x="20" y="244" type="curve" smooth="yes"/>
      <point x="20" y="94"/>
      <point x="90" y="-10"/>
    </contour>
    <contour>
      <point x="189" y="48" type="curve" smooth="yes"/>
      <point x="116" y="48"/>
      <point x="100" y="137"/>
      <point x="100" y="247" type="curve" smooth="yes"/>
      <point x="100" y="357"/>
      <point x="110" y="454"/>
      <point x="193" y="454" type="curve" smooth="yes"/>
      <point x="273" y="454"/>
      <point x="281" y="346"/>
      <point x="281" y="236" type="curve" smooth="yes"/>
      <point x="281" y="126"/>
      <point x="256" y="48"/>
    </contour>
  </outline>
</glyph>
<glyph name="e" format="2">
  <advance width="390"/>
  <unicode hex="0065"/>
  <note>
e</note>
  <outline>
    <contour>
      <point x="291" y="184" type="curve"/>
      <point x="374" y="184" type="line"/>
      <point x="374" y="116"/>
      <point x="323" y="-10"/>
      <point x="205" y="-10" type="curve" smooth="yes"/>
      <point x="49" y="-10"/>
      <point x="15" y="148"/>
      <point x="15" y="249" type="curve" smooth="yes"/>
      <point x="15" y="394"/>
      <point x="67" y="510"/>
      <point x="198" y="510" type="curve" smooth="yes"/>
      <point x="329" y="510"/>
      <point x="383" y="382"/>
      <point x="374" y="250" type="curve"/>
      <point x="102" y="250" type="line"/>
      <point x="102" y="191"/>
      <point x="103" y="67"/>
      <point x="202" y="67" type="curve" smooth="yes"/>
      <point x="256" y="67"/>
      <point x="291" y="109"/>
    </contour>
    <contour>
      <point x="102" y="306" type="curve"/>
      <point x="291" y="306" type="line"/>
      <point x="291" y="363"/>
      <point x="270" y="450"/>
      <point x="196" y="450" type="curve" smooth="yes"/>
      <point x="130" y="450"/>
      <point x="102" y="379"/>
    </contour>
  </outline>
</glyph>
<glyph name="f" format="2">
  <advance width="270"/>
  <unicode hex="0066"/>
  <note>
f</note>
  <outline>
    <contour>
      <point x="175" y="444" type="line"/>
      <point x="175" y="56" type="line"/>
      <point x="240" y="56" type="line"/>
      <point x="240" y="0" type="line"/>
      <point x="30" y="0" type="line"/>
      <point x="30" y="56" type="line"/>
      <point x="95" y="56" type="line"/>
      <point x="95" y="444" type="line"/>
      <point x="30" y="444" type="line"/>
      <point x="30" y="500" type="line"/>
      <point x="95" y="500" type="line"/>
      <point x="95" y="647" type="line" smooth="yes"/>
      <point x="95" y="676"/>
      <point x="108" y="710"/>
      <point x="163" y="710" type="curve" smooth="yes"/>
      <point x="233" y="710"/>
      <point x="235" y="655"/>
      <point x="235" y="589" type="curve"/>
      <point x="186" y="589" type="line"/>
      <point x="185" y="623" type="line"/>
      <point x="185" y="638"/>
      <point x="178" y="655"/>
      <point x="160" y="655" type="curve" smooth="yes"/>
      <point x="143" y="655"/>
      <point x="138" y="641"/>
      <point x="138" y="624" type="curve" smooth="yes"/>
      <point x="138" y="607"/>
      <point x="154" y="576"/>
      <point x="175" y="566" type="curve"/>
      <point x="175" y="500" type="line"/>
      <point x="240" y="500" type="line"/>
      <point x="240" y="444" type="line"/>
    </contour>
  </outline>
</glyph>
<glyph name="g" format="2">
  <advance width="449"/>
  <unicode hex="0067"/>
  <note>
g
</note>
  <outline>
    <contour>
      <point x="419" y="445" type="line"/>
      <point x="419" y="501" type="line"/>
      <point x="274" y="501" type="line"/>
      <point x="274" y="468" type="line"/>
      <point x="260" y="488"/>
      <point x="224" y="510"/>
      <point x="185" y="510" type="curve" smooth="yes"/>
      <point x="117" y="510"/>
      <point x="20" y="435"/>
      <point x="20" y="249" type="curve" smooth="yes"/>
      <point x="20" y="63"/>
      <point x="117" y="-10"/>
      <point x="179" y="-10" type="curve" smooth="yes"/>
      <point x="241" y="-10"/>
      <point x="265" y="20"/>
      <point x="274" y="42" type="curve"/>
      <point x="274" y="-126" type="line" smooth="yes"/>
      <point x="274" y="-149"/>
      <point x="274" y="-203"/>
      <point x="197" y="-203" type="curve" smooth="yes"/>
      <point x="128" y="-203"/>
      <point x="114" y="-148"/>
      <point x="110" y="-105" type="curve" smooth="yes"/>
      <point x="109" y="-95"/>
      <point x="109" y="-84"/>
      <point x="109" y="-79" type="curve"/>
      <point x="29" y="-79" type="line"/>
      <point x="31" y="-136"/>
      <point x="32" y="-260"/>
      <point x="198" y="-260" type="curve" smooth="yes"/>
      <point x="330" y="-260"/>
      <point x="354" y="-177"/>
      <point x="354" y="-140" type="curve" smooth="yes"/>
      <point x="354" y="445" type="line"/>
    </contour>
    <contour>
      <point x="196" y="446" type="curve"/>
      <point x="227" y="447"/>
      <point x="247" y="428"/>
      <point x="259" y="410" type="curve" smooth="yes"/>
      <point x="275" y="385"/>
      <point x="275" y="336"/>
      <point x="275" y="233" type="curve" smooth="yes"/>
      <point x="275" y="155"/>
      <point x="278" y="117"/>
      <point x="266" y="92" type="curve" smooth="yes"/>
      <point x="251" y="60"/>
      <point x="223" y="43"/>
      <point x="202" y="43" type="curve" smooth="yes"/>
      <point x="168" y="43"/>
      <point x="112" y="65"/>
      <point x="112" y="233" type="curve" smooth="yes"/>
      <point x="112" y="401"/>
      <point x="154" y="446"/>
    </contour>
  </outline>
</glyph>
<glyph name="h" format="2">
  <advance width="520"/>
  <unicode hex="0068"/>
  <note>
h</note>
  <outline>
    <contour>
      <point x="182" y="56" type="line"/>
      <point x="247" y="56" type="line"/>
      <point x="247" y="0" type="line"/>
      <point x="37" y="0" type="line"/>
      <point x="37" y="56" type="line"/>
      <point x="102" y="56" type="line"/>
      <point x="102" y="639" type="line"/>
      <point x="30" y="639" type="line"/>
      <point x="30" y="700" type="line"/>
      <point x="182" y="700" type="line"/>
      <point x="182" y="459" type="line"/>
      <point x="205" y="492"/>
      <point x="243" y="510"/>
      <point x="305" y="510" type="curve" smooth="yes"/>
      <point x="373" y="510"/>
      <point x="430" y="432"/>
      <point x="430" y="358" type="curve" smooth="yes"/>
      <point x="430" y="56" type="line"/>
      <point x="495" y="56" type="line"/>
      <point x="495" y="0" type="line"/>
      <point x="285" y="0" type="line"/>
      <point x="285" y="56" type="line"/>
      <point x="350" y="56" type="line"/>
      <point x="350" y="350" type="line" smooth="yes"/>
      <point x="350" y="387"/>
      <point x="340" y="448"/>
      <point x="284" y="447" type="curve" smooth="yes"/>
      <point x="222" y="446"/>
      <point x="182" y="397"/>
      <point x="182" y="315" type="curve" smooth="yes"/>
    </contour>
  </outline>
</glyph>
<glyph name="m" format="2">
  <advance width="761"/>
  <unicode hex="006D"/>
  <note>
m
</note>
  <guideline y="459"/>
  <outline>
    <contour>
      <point x="30" y="56" type="line"/>
      <point x="30" y="0" type="line"/>
      <point x="240" y="0" type="line"/>
      <point x="240" y="56" type="line"/>
      <point x="175" y="56" type="line"/>
      <point x="175" y="318" type="line" smooth="yes"/>
      <point x="175" y="386"/>
      <point x="207" y="447"/>
      <point x="279" y="447" type="curve" smooth="yes"/>
      <point x="325" y="447"/>
      <point x="343" y="399"/>
      <point x="343" y="360" type="curve" smooth="yes"/>
      <point x="343" y="56" type="line"/>
      <point x="278" y="56" type="line"/>
      <point x="278" y="0" type="line"/>
      <point x="488" y="0" type="line"/>
      <point x="488" y="56" type="line"/>
      <point x="423" y="56" type="line"/>
      <point x="423" y="364" type="line" smooth="yes"/>
      <point x="423" y="387"/>
      <point x="426" y="427"/>
      <point x="402" y="459" type="curve" smooth="yes"/>
      <point x="381" y="487"/>
      <point x="336" y="510"/>
      <point x="290" y="510" type="curve" smooth="yes"/>
      <point x="236" y="510"/>
      <point x="199" y="491"/>
      <point x="175" y="459" type="curve"/>
      <point x="175" y="499" type="line"/>
      <point x="30" y="499" type="line"/>
      <point x="30" y="441" type="line"/>
      <point x="95" y="441" type="line"/>
      <point x="95" y="56" type="line"/>
    </contour>
    <contour>
      <point x="278" y="56" type="line"/>
      <point x="278" y="0" type="line"/>
      <point x="488" y="0" type="line"/>
      <point x="488" y="56" type="line"/>
      <point x="423" y="56" type="line"/>
      <point x="423" y="318" type="line" smooth="yes"/>
      <point x="423" y="387"/>
      <point x="458" y="447"/>
      <point x="527" y="447" type="curve" smooth="yes"/>
      <point x="573" y="447"/>
      <point x="591" y="399"/>
      <point x="591" y="360" type="curve" smooth="yes"/>
      <point x="591" y="56" type="line"/>
      <point x="526" y="56" type="line"/>
      <point x="526" y="0" type="line"/>
      <point x="736" y="0" type="line"/>
      <point x="736" y="56" type="line"/>
      <point x="671" y="56" type="line"/>
      <point x="671" y="364" type="line" smooth="yes"/>
      <point x="671" y="410"/>
      <point x="635" y="510"/>
      <point x="538" y="510" type="curve" smooth="yes"/>
      <point x="484" y="510"/>
      <point x="450" y="503"/>
      <point x="402" y="459" type="curve"/>
      <point x="395" y="425" type="line"/>
      <point x="343" y="447" type="line"/>
      <point x="343" y="56" type="line"/>
    </contour>
  </outline>
</glyph>
<glyph name="o" format="2">
  <advance width="404"/>
  <unicode hex="006F"/>
  <note>
o
</note>
  <outline>
    <contour>
      <point x="202" y="50" type="curve" smooth="yes"/>
      <point x="142" y="50"/>
      <point x="112" y="100"/>
      <point x="112" y="200" type="curve" smooth="yes"/>
      <point x="112" y="300" type="line" smooth="yes"/>
      <point x="112" y="404"/>
      <point x="139" y="450"/>
      <point x="202" y="450" type="curve" smooth="yes"/>
      <point x="265" y="450"/>
      <point x="292" y="404"/>
      <point x="292" y="300" type="curve" smooth="yes"/>
      <point x="292" y="200" type="line" smooth="yes"/>
      <point x="292" y="100"/>
      <point x="262" y="50"/>
    </contour>
    <contour>
      <point x="202" y="510" type="curve" smooth="yes"/>
      <point x="91" y="510"/>
      <point x="20" y="410"/>
      <point x="20" y="250" type="curve" smooth="yes"/>
      <point x="20" y="90"/>
      <point x="91" y="-10"/>
      <point x="202" y="-10" type="curve" smooth="yes"/>
      <point x="313" y="-10"/>
      <point x="384" y="90"/>
      <point x="384" y="250" type="curve" smooth="yes"/>
      <point x="384" y="410"/>
      <point x="313" y="510"/>
    </contour>
  </outline>
</glyph>
<glyph name="r" format="2">
  <advance width="408"/>
  <unicode hex="0072"/>
  <note>
r</note>
  <outline>
    <contour>
      <point x="175" y="56" type="curve"/>
      <point x="240" y="56" type="line"/>
      <point x="240" y="0" type="line"/>
      <point x="30" y="0" type="line"/>
      <point x="30" y="56" type="line"/>
      <point x="95" y="56" type="line"/>
      <point x="95" y="444" type="line"/>
      <point x="30" y="444" type="line"/>
      <point x="30" y="500" type="line"/>
      <point x="175" y="500" type="line"/>
      <point x="175" y="460" type="line"/>
      <point x="180" y="468"/>
      <point x="205" y="510"/>
      <point x="263" y="510" type="curve" smooth="yes"/>
      <point x="341" y="510"/>
      <point x="404" y="435"/>
      <point x="384" y="327" type="curve" smooth="yes"/>
      <point x="382" y="316"/>
      <point x="381" y="310"/>
      <point x="379" y="305" type="curve"/>
      <point x="318" y="305" type="line"/>
      <point x="323" y="328"/>
      <point x="325" y="392"/>
      <point x="297" y="420" type="curve" smooth="yes"/>
      <point x="272" y="446"/>
      <point x="219" y="443"/>
      <point x="195" y="420" type="curve" smooth="yes"/>
      <point x="175" y="401"/>
      <point x="174" y="364"/>
      <point x="175" y="310" type="curve" smooth="yes"/>
      <point x="176" y="270"/>
      <point x="175" y="140"/>
    </contour>
  </outline>
</glyph>
<glyph name="t" format="2">
  <advance width="277"/>
  <unicode hex="0074"/>
  <note>
t</note>
  <outline>
    <contour>
      <point x="235" y="500" type="line"/>
      <point x="170" y="500" type="line"/>
      <point x="170" y="700" type="line"/>
      <point x="128" y="700" type="line"/>
      <point x="90" y="615" type="line"/>
      <point x="90" y="500" type="line"/>
      <point x="25" y="500" type="line"/>
      <point x="25" y="444" type="line"/>
      <point x="89" y="444" type="line"/>
      <point x="89" y="62" type="line" smooth="yes"/>
      <point x="89" y="48"/>
      <point x="99" y="-10"/>
      <point x="167" y="-10" type="curve" smooth="yes"/>
      <point x="235" y="-10"/>
      <point x="247" y="35"/>
      <point x="247" y="78" type="curve" smooth="yes"/>
      <point x="247" y="109" type="line"/>
      <point x="213" y="109" type="line"/>
      <point x="213" y="99"/>
      <point x="217" y="47"/>
      <point x="190" y="47" type="curve" smooth="yes"/>
      <point x="168" y="47"/>
      <point x="170" y="88"/>
      <point x="170" y="109" type="curve" smooth="yes"/>
      <point x="170" y="444" type="line"/>
      <point x="235" y="444" type="line"/>
    </contour>
  </outline>
</glyph>
<glyph name="u" format="2">
  <advance width="513"/>
  <unicode hex="0075"/>
  <note>
u
</note>
  <outline>
    <contour>
      <point x="418" y="499" type="line"/>
      <point x="273" y="499" type="line"/>
      <point x="273" y="443" type="line"/>
      <point x="338" y="443" type="line"/>
      <point x="338" y="181" type="line" smooth="yes"/>
      <point x="338" y="111"/>
      <point x="304" y="52"/>
      <point x="234" y="52" type="curve" smooth="yes"/>
      <point x="188" y="52"/>
      <point x="170" y="100"/>
      <point x="170" y="139" type="curve" smooth="yes"/>
      <point x="170" y="499" type="line"/>
      <point x="25" y="499" type="line"/>
      <point x="25" y="443" type="line"/>
      <point x="90" y="443" type="line"/>
      <point x="90" y="135" type="line" smooth="yes"/>
      <point x="90" y="92"/>
      <point x="126" y="-11"/>
      <point x="223" y="-11" type="curve" smooth="yes"/>
      <point x="277" y="-11"/>
      <point x="314" y="8"/>
      <point x="338" y="40" type="curve"/>
      <point x="338" y="0" type="line"/>
      <point x="483" y="0" type="line"/>
      <point x="483" y="58" type="line"/>
      <point x="418" y="58" type="line"/>
    </contour>
  </outline>
</glyph>
<glyph name="v" format="2">
  <advance width="499"/>
  <unicode hex="0076"/>
  <note>
v
</note>
  <guideline y="110"/>
  <outline>
    <contour>
      <point x="244" y="444" type="line"/>
      <point x="244" y="500" type="line"/>
      <point x="25" y="500" type="line"/>
      <point x="25" y="444" type="line"/>
      <point x="90" y="444" type="line"/>
      <point x="213" y="0" type="line"/>
      <point x="290" y="0" type="line"/>
      <point x="409" y="444" type="line"/>
      <point x="474" y="444" type="line"/>
      <point x="474" y="500" type="line"/>
      <point x="282" y="500" type="line"/>
      <point x="282" y="444" type="line"/>
      <point x="346" y="444" type="line"/>
      <point x="258" y="110" type="line"/>
      <point x="179" y="444" type="line"/>
    </contour>
  </outline>
</glyph>
<glyph name="w" format="2">
  <advance width="756"/>
  <unicode hex="0077"/>
  <note>
w
</note>
  <outline>
    <contour>
      <point x="244" y="444" type="line"/>
      <point x="244" y="500" type="line"/>
      <point x="25" y="500" type="line"/>
      <point x="25" y="444" type="line"/>
      <point x="90" y="444" type="line"/>
      <point x="213" y="0" type="line"/>
      <point x="295" y="0" type="line"/>
      <point x="436" y="444" type="line"/>
      <point x="501" y="444" type="line"/>
      <point x="501" y="500" type="line"/>
      <point x="296" y="500" type="line"/>
      <point x="295" y="444" type="line"/>
      <point x="373" y="444" type="line"/>
      <point x="263" y="110" type="line"/>
      <point x="179" y="444" type="line"/>
    </contour>
    <contour>
      <point x="501" y="444" type="line"/>
      <point x="501" y="500" type="line"/>
      <point x="282" y="500" type="line"/>
      <point x="282" y="444" type="line"/>
      <point x="347" y="444" type="line"/>
      <point x="470" y="0" type="line"/>
      <point x="547" y="0" type="line"/>
      <point x="666" y="444" type="line"/>
      <point x="731" y="444" type="line"/>
      <point x="731" y="500" type="line"/>
      <point x="539" y="500" type="line"/>
      <point x="539" y="444" type="line"/>
      <point x="603" y="444" type="line"/>
      <point x="520" y="110" type="line"/>
      <point x="436" y="444" type="line"/>
    </contour>
    <contour>
      <point x="244" y="444" type="line"/>
      <point x="244" y="500" type="line"/>
      <point x="25" y="500" type="line"/>
      <point x="25" y="444" type="line"/>
      <point x="90" y="444" type="line"/>
      <point x="213" y="0" type="line"/>
      <point x="295" y="0" type="line"/>
      <point x="436" y="444" type="line"/>
      <point x="501" y="444" type="line"/>
      <point x="501" y="500" type="line"/>
      <point x="296" y="500" type="line"/>
      <point x="295" y="444" type="line"/>
      <point x="373" y="444" type="line"/>
      <point x="263" y="110" type="line"/>
      <point x="179" y="444" type="line"/>
    </contour>
    <contour>
      <point x="501" y="444" type="line"/>
      <point x="501" y="500" type="line"/>
      <point x="282" y="500" type="line"/>
      <point x="282" y="444" type="line"/>
      <point x="347" y="444" type="line"/>
      <point x="470" y="0" type="line"/>
      <point x="547" y="0" type="line"/>
      <point x="666" y="444" type="line"/>
      <point x="731" y="444" type="line"/>
      <point x="731" y="500" type="line"/>
      <point x="539" y="500" type="line"/>
      <point x="539" y="444" type="line"/>
      <point x="603" y="444" type="line"/>
      <point x="520" y="110" type="line"/>
      <point x="436" y="444" type="line"/>
    </contour>
  </outline>
</glyph>
<glyph name="x" format="2">
  <advance width="513"/>
  <unicode hex="0078"/>
  <note>
x</note>
  <outline>
    <contour>
      <point x="249" y="445" type="line"/>
      <point x="249" y="501" type="line"/>
      <point x="30" y="501" type="line"/>
      <point x="30" y="445" type="line"/>
      <point x="95" y="445" type="line"/>
      <point x="218" y="251" type="line"/>
      <point x="295" y="251" type="line"/>
      <point x="414" y="445" type="line"/>
      <point x="479" y="445" type="line"/>
      <point x="479" y="501" type="line"/>
      <point x="287" y="501" type="line"/>
      <point x="287" y="445" type="line"/>
      <point x="351" y="445" type="line"/>
      <point x="263" y="303" type="line"/>
      <point x="184" y="445" type="line"/>
    </contour>
    <contour>
      <point x="264" y="57" type="line"/>
      <point x="264" y="1" type="line"/>
      <point x="483" y="1" type="line"/>
      <point x="483" y="57" type="line"/>
      <point x="418" y="57" type="line"/>
      <point x="295" y="251" type="line"/>
      <point x="218" y="251" type="line"/>
      <point x="99" y="57" type="line"/>
      <point x="34" y="57" type="line"/>
      <point x="34" y="1" type="line"/>
      <point x="227" y="1" type="line"/>
      <point x="227" y="57" type="line"/>
      <point x="162" y="57" type="line"/>
      <point x="250" y="199" type="line"/>
      <point x="329" y="57" type="line"/>
    </contour>
  </outline>
</glyph>
<glyph name="y" format="2">
  <advance width="490"/>
  <unicode hex="0079"/>
  <note>
y</note>
  <outline>
    <contour>
      <point x="251" y="444" type="line"/>
      <point x="251" y="500" type="line"/>
      <point x="32" y="500" type="line"/>
      <point x="32" y="444" type="line"/>
      <point x="97" y="444" type="line"/>
      <point x="220" y="0" type="line"/>
      <point x="213" y="-37"/>
      <point x="208" y="-67"/>
      <point x="204" y="-82" type="curve" smooth="yes"/>
      <point x="202" y="-91"/>
      <point x="184" y="-191"/>
      <point x="136" y="-191" type="curve" smooth="yes"/>
      <point x="104" y="-191"/>
      <point x="88" y="-157"/>
      <point x="87" y="-141" type="curve" smooth="yes"/>
      <point x="86" y="-122"/>
      <point x="86" y="-94"/>
      <point x="87" y="-74" type="curve"/>
      <point x="18" y="-74" type="line"/>
      <point x="18" y="-138" type="line" smooth="yes"/>
      <point x="18" y="-178"/>
      <point x="48" y="-247"/>
      <point x="138" y="-247" type="curve" smooth="yes"/>
      <point x="236" y="-247"/>
      <point x="253" y="-154"/>
      <point x="273" y="-90" type="curve"/>
      <point x="416" y="444" type="line"/>
      <point x="481" y="444" type="line"/>
      <point x="481" y="500" type="line"/>
      <point x="289" y="500" type="line"/>
      <point x="289" y="444" type="line"/>
      <point x="353" y="444" type="line"/>
      <point x="265" y="109" type="line"/>
      <point x="186" y="444" type="line"/>
    </contour>
  </outline>
</glyph>
<glyph name="R" format="2">
  <advance width="665"/>
  <note>
R
</note>
  <outline>
    <contour>
      <point x="417" y="366" type="curve"/>
      <point x="488" y="350"/>
      <point x="521" y="283"/>
      <point x="523" y="232" type="curve" smooth="yes"/>
      <point x="525" y="180"/>
      <point x="523" y="125"/>
      <point x="523" y="98" type="curve" smooth="yes"/>
      <point x="523" y="76"/>
      <point x="535" y="63"/>
      <point x="561" y="63" type="curve" smooth="yes"/>
      <point x="581" y="63"/>
      <point x="602" y="70"/>
      <point x="615" y="84" type="curve"/>
      <point x="615" y="19" type="line"/>
      <point x="602" y="0"/>
      <point x="571" y="0"/>
      <point x="526" y="0" type="curve" smooth="yes"/>
      <point x="441" y="0"/>
      <point x="401" y="47"/>
      <point x="401" y="115" type="curve" smooth="yes"/>
      <point x="401" y="235" type="line" smooth="yes"/>
      <point x="401" y="255"/>
      <point x="399" y="324"/>
      <point x="342" y="324" type="curve" smooth="yes"/>
      <point x="181" y="325" type="line"/>
      <point x="181" y="70" type="line"/>
      <point x="291" y="70" type="line"/>
      <point x="291" y="0" type="line"/>
      <point x="-39" y="0" type="line"/>
      <point x="-39" y="70" type="line"/>
      <point x="71" y="70" type="line"/>
      <point x="71" y="630" type="line"/>
      <point x="-39" y="630" type="line"/>
      <point x="-39" y="700" type="line"/>
      <point x="306" y="700" type="line" smooth="yes"/>
      <point x="433" y="700"/>
      <point x="506" y="610"/>
      <point x="506" y="523" type="curve" smooth="yes"/>
      <point x="506" y="435"/>
      <point x="472" y="391"/>
    </contour>
    <contour>
      <point x="323" y="630" type="curve" smooth="yes"/>
      <point x="181" y="630" type="line"/>
      <point x="181" y="403" type="line"/>
      <point x="325" y="403" type="line" smooth="yes"/>
      <point x="384" y="403"/>
      <point x="409" y="467"/>
      <point x="409" y="519" type="curve" smooth="yes"/>
      <point x="409" y="572"/>
      <point x="384" y="630"/>
    </contour>
  </outline>
</glyph>
<glyph name="period" format="2">
  <advance width="268"/>
  <note>
period</note>
  <outline>
    <contour>
      <point x="127" y="58" type="curve" smooth="yes"/>
      <point x="127" y="20"/>
      <point x="156" y="-10"/>
      <point x="191" y="-10" type="curve" smooth="yes"/>
      <point x="226" y="-10"/>
      <point x="255" y="20"/>
      <point x="255" y="58" type="curve" smooth="yes"/>
      <point x="255" y="95"/>
      <point x="226" y="125"/>
      <point x="191" y="125" type="curve" smooth="yes"/>
      <point x="156" y="125"/>
      <point x="127" y="95"/>
    </contour>
  </outline>
</glyph>
<glyph name="zero" format="2">
  <advance width="572"/>
  <note>
zero</note>
  <outline>
    <contour>
      <point x="282" y="696" type="curve" smooth="yes"/>
      <point x="426" y="696"/>
      <point x="523" y="564"/>
      <point x="523" y="335" type="curve" smooth="yes"/>
      <point x="523" y="106"/>
      <point x="380" y="4"/>
      <point x="284" y="4" type="curve" smooth="yes"/>
      <point x="188" y="4"/>
      <point x="39" y="117"/>
      <point x="39" y="335" type="curve" smooth="yes"/>
      <point x="39" y="553"/>
      <point x="132" y="696"/>
    </contour>
    <contour>
      <point x="281" y="625" type="curve" smooth="yes"/>
      <point x="233" y="625"/>
      <point x="158" y="620"/>
      <point x="158" y="365" type="curve" smooth="yes"/>
      <point x="158" y="110"/>
      <point x="214" y="74"/>
      <point x="284" y="74" type="curve" smooth="yes"/>
      <point x="354" y="74"/>
      <point x="400" y="118"/>
      <point x="400" y="357" type="curve" smooth="yes"/>
      <point x="400" y="596"/>
      <point x="348" y="625"/>
    </contour>
  </outline>
</glyph>
